# xmcd
#
# Track frame offsets:
#	150
#	12575
#	31902
#	46832
#	61955
#	76892
#	91532
#	106907
#	119180
#	136207
#	148832
#	161887
#	174187
#	189790
#
# Disc length: 2844 seconds
#
# Revision: 3
# Processed by: cddbd v1.5.2PL0 Copyright (c) Steve Scherf et al.
# Submitted via: audiograbber 1.83.01
#
DISCID=b00b1a0e
DTITLE=Various Artist - Mr. Music Country 03-97
DYEAR=1997
DGENRE=Country
TTITLE0=George Jones - Honky Tonk Song
TTITLE1=The Mavericks and Flaco Jimenez - All You Ever Do Is to Bring Me Down
TTITLE2=Dolly Parton - Satin Sheets
TTITLE3=James T. Horn - If Dreams Have Wings
TTITLE4=Gary Allan - Send Back My Heart
TTITLE5=Mark Chesnutt - Pride's Not Hard to Swallow
TTITLE6=Becky Hobbs - The Boots I Came to Town In
TTITLE7=Tracy Byrd - I Don't Believe That's How You Feel
TTITLE8=Trisha Yearwood and George Jones - Bartender's Blues
TTITLE9=B.J.Johnson - I Got a Job I Don't Like
TTITLE10=Rhett Atkins - K-I-S-S-I-N-G
TTITLE11=Darrell McCall and Johnny Paycheck - Pictures Can't Talk Back
TTITLE12=Reba McEntire - I'd Rather Ride Around with You
TTITLE13=Vince Gill - Go Rest High on That Mountain
EXTD=
EXTT0=
EXTT1=
EXTT2=
EXTT3=
EXTT4=
EXTT5=
EXTT6=
EXTT7=
EXTT8=
EXTT9=
EXTT10=
EXTT11=
EXTT12=
EXTT13=
PLAYORDER=
